<?xml version="1.0" encoding="utf-8"?>
<!-- Generator: Adobe Illustrator 25.2.1, SVG Export Plug-In . SVG Version: 6.00 Build 0)  -->
<svg version="1.1" id="Layer_1" xmlns="http://www.w3.org/2000/svg" xmlns:xlink="http://www.w3.org/1999/xlink" x="0px" y="0px"
	 viewBox="0 0 128 128" style="enable-background:new 0 0 128 128;" xml:space="preserve">
<style type="text/css">
	.st0{fill:none;}
</style>
<g>
	<g>
		<rect class="st0" width="128" height="128"/>
	</g>
	<g>
		<path d="M53.66,57.76c-4.97,0-9.65-1.94-13.16-5.45c-3.51-3.51-5.45-8.19-5.45-13.16s1.93-9.65,5.45-13.16s8.19-5.45,13.16-5.45
			c4.9,0,9.69,1.99,13.16,5.45c3.51,3.51,5.45,8.19,5.45,13.16s-1.94,9.64-5.45,13.16C63.3,55.83,58.63,57.76,53.66,57.76z
			 M53.66,28.6c-2.82,0-5.47,1.1-7.46,3.09c-1.99,2-3.09,4.64-3.09,7.46s1.1,5.47,3.09,7.46c2,1.99,4.64,3.09,7.46,3.09
			s5.47-1.1,7.46-3.09c1.99-2,3.09-4.65,3.09-7.46s-1.1-5.47-3.09-7.46C59.12,29.7,56.47,28.6,53.66,28.6z"/>
		<path d="M53.66,103.13c-20.78,0-33.19-13.58-33.19-26.71v-3.24c0-2.8,1.09-5.44,3.08-7.43c1.98-1.98,4.62-3.08,7.43-3.08h33.19
			v1.68l-0.63,0.13c-1.63,0.34-3.19,1.05-4.52,2.05s-2.44,2.31-3.21,3.78l-0.22,0.42H30.98c-0.66,0-1.27,0.25-1.73,0.72
			c-0.46,0.45-0.72,1.08-0.72,1.73v3.24c0,9.17,9.4,18.66,25.13,18.66h0.79v8.06h-0.79V103.13z"/>
		<path d="M65.81,109.61c-3.56,0-6.46-2.97-6.46-6.62V75.77c-0.02-1.72,0.65-3.41,1.85-4.64c1.2-1.23,2.87-1.96,4.6-1.98h3.27v-5.69
			c0-3.67,1.43-7.13,4.03-9.72c2.6-2.6,6.05-4.03,9.72-4.03s7.13,1.43,9.72,4.03c2.6,2.6,4.03,6.05,4.03,9.72v5.69h3.26
			c3.56,0,6.46,2.97,6.46,6.62v27.22c0.02,1.71-0.65,3.4-1.85,4.64c-1.22,1.25-2.85,1.96-4.6,1.98H65.81z M82.82,85.31
			c-1.09,0-2.11,0.42-2.88,1.19c-0.76,0.76-1.2,1.81-1.2,2.88s0.44,2.12,1.2,2.88c0.73,0.73,1.78,1.15,2.88,1.15
			s2.15-0.42,2.88-1.15c0.76-0.76,1.19-1.81,1.19-2.88s-0.44-2.12-1.19-2.88C84.94,85.74,83.89,85.31,82.82,85.31z M82.82,57.81
			c-1.53,0-3,0.59-4.02,1.62c-1.07,1.07-1.67,2.5-1.67,4.02v5.69h11.39v-5.69c0-1.5-0.61-2.96-1.67-4.02
			C85.82,58.4,84.35,57.81,82.82,57.81z"/>
	</g>
</g>
</svg>
