<?xml version="1.0" encoding="utf-8"?>
<!-- Generator: Adobe Illustrator 25.2.1, SVG Export Plug-In . SVG Version: 6.00 Build 0)  -->
<svg version="1.1" id="Layer_1" xmlns="http://www.w3.org/2000/svg" xmlns:xlink="http://www.w3.org/1999/xlink" x="0px" y="0px"
	 viewBox="0 0 128 128" style="enable-background:new 0 0 128 128;" xml:space="preserve">
<style type="text/css">
	.st0{fill:none;}
</style>
<g>
	<g>
		<rect class="st0" width="128" height="128"/>
	</g>
	<g>
		<path d="M81.59,110.75H29.04c-5.38,0-9.76-4.38-9.76-9.76V48.45c0-5.38,4.38-9.76,9.76-9.76h52.54c5.38,0,9.76,4.38,9.76,9.76
			v52.54C91.34,106.37,86.97,110.75,81.59,110.75z M29.04,45.44c-1.66,0-3.01,1.35-3.01,3.01v52.54c0,1.66,1.35,3,3.01,3h52.54
			c1.66,0,3-1.35,3-3V48.45c0-1.66-1.35-3.01-3-3.01C81.58,45.44,29.04,45.44,29.04,45.44z"/>
		<path d="M98.86,91.46h-6.82V84.7h6.82V91.46z M87.48,91.46h-6.82V84.7h6.82V91.46z M76.11,91.46h-6.82V84.7h6.82V91.46z
			 M64.74,91.46h-6.82V84.7h6.82V91.46z M53.37,91.46h-5.7c-0.58,0-1.16-0.05-1.72-0.15l1.21-6.65c0.16,0.03,0.34,0.04,0.51,0.04
			h5.7C53.37,84.7,53.37,91.46,53.37,91.46z M104.9,90.25l-3.26-5.92c0.97-0.53,1.57-1.54,1.57-2.63l6.76-0.07v0.07
			C109.97,85.25,108.03,88.53,104.9,90.25z M40.1,87.86c-1.42-1.73-2.2-3.92-2.2-6.15v-2.47h6.76v2.47c0,0.87,0.37,1.51,0.68,1.88
			L40.1,87.86z M109.97,77.08h-6.76v-6.82h6.76V77.08z M44.66,74.68H37.9v-6.82h6.76C44.66,67.86,44.66,74.68,44.66,74.68z
			 M109.97,65.7h-6.76v-6.82h6.76V65.7z M44.66,63.31H37.9v-6.83h6.76C44.66,56.48,44.66,63.31,44.66,63.31z M109.97,54.33h-6.76
			v-6.82h6.76V54.33z M44.66,51.94H37.9v-6.82h6.76C44.66,45.12,44.66,51.94,44.66,51.94z M109.97,42.96h-6.76v-6.82h6.76V42.96z
			 M44.66,40.57H37.9v-6.82h6.76C44.66,33.75,44.66,40.57,44.66,40.57z M109.97,31.59h-6.76v-2.43c0-0.88-0.37-1.52-0.69-1.9
			l5.21-4.3c1.44,1.74,2.23,3.94,2.23,6.2v2.43H109.97z M37.9,29.19v-0.04c0-3.53,1.92-6.79,5.01-8.53l3.3,5.9
			c-0.96,0.54-1.56,1.54-1.56,2.63L37.9,29.19z M100.7,26.19c-0.16-0.03-0.33-0.04-0.49-0.04h-5.74V19.4h5.74
			c0.57,0,1.12,0.05,1.66,0.14L100.7,26.19z M89.92,26.15H83.1V19.4h6.82V26.15z M78.54,26.15h-6.82V19.4h6.82V26.15z M67.17,26.15
			h-6.82V19.4h6.82V26.15z M55.8,26.15h-6.82V19.4h6.82V26.15z"/>
	</g>
</g>
</svg>
