<?xml version="1.0" encoding="UTF-8" standalone="no"?>
<!-- Created with Inkscape (http://www.inkscape.org/) -->

<svg
   version="1.1"
   id="svg132"
   width="64"
   height="64"
   viewBox="0 0 256 256"
   sodipodi:docname="qlabelme.svg"
   inkscape:version="1.2.2 (b0a8486541, 2022-12-01)"
   xmlns:inkscape="http://www.inkscape.org/namespaces/inkscape"
   xmlns:sodipodi="http://sodipodi.sourceforge.net/DTD/sodipodi-0.dtd"
   xmlns:xlink="http://www.w3.org/1999/xlink"
   xmlns="http://www.w3.org/2000/svg"
   xmlns:svg="http://www.w3.org/2000/svg">
  <defs
     id="defs136">
    <linearGradient
       inkscape:collect="always"
       id="linearGradient11139">
      <stop
         style="stop-color:#31b446;stop-opacity:1;"
         offset="0"
         id="stop11135" />
      <stop
         style="stop-color:#4ace5c;stop-opacity:1;"
         offset="1"
         id="stop11137" />
    </linearGradient>
    <linearGradient
       inkscape:collect="always"
       xlink:href="#linearGradient11139"
       id="linearGradient11141"
       x1="179.39435"
       y1="274.21317"
       x2="177.54822"
       y2="26.829094"
       gradientUnits="userSpaceOnUse" />
  </defs>
  <sodipodi:namedview
     id="namedview134"
     pagecolor="#ffffff"
     bordercolor="#000000"
     borderopacity="0.25"
     inkscape:showpageshadow="true"
     inkscape:pageopacity="0.0"
     inkscape:pagecheckerboard="0"
     inkscape:deskcolor="#bcbcbc"
     showgrid="false"
     inkscape:zoom="6.5000147"
     inkscape:cx="42.692211"
     inkscape:cy="32.769157"
     inkscape:window-width="1920"
     inkscape:window-height="1110"
     inkscape:window-x="0"
     inkscape:window-y="0"
     inkscape:window-maximized="1"
     inkscape:current-layer="g138"
     showguides="false"
     showborder="false"
     borderlayer="true" />
  <g
     inkscape:groupmode="layer"
     inkscape:label="Image"
     id="g138"
     style="display:inline"
     transform="translate(-42.779291,-23.752177)"
     sodipodi:insensitive="true">
    <path
       style="display:inline;fill:#fbfdfc;fill-opacity:1;fill-rule:nonzero;stroke-width:0.441055;stroke-dasharray:none"
       d="m 155.92877,279.25169 -3.26393,-0.38859 -4.1343,-0.71391 -4.13432,-0.71391 -4.3519,-1.10561 -4.3519,-1.10562 -3.69912,-1.14703 -3.69912,-1.14703 -4.78709,-1.89786 -4.78709,-1.89786 -4.5695,-2.26786 -4.5695,-2.26786 -3.91671,-2.32352 -3.91671,-2.32352 -4.787099,-3.37766 -4.787095,-3.37766 -4.8089,-4.1402 -4.808906,-4.1402 -5.297558,-5.63197 -5.297552,-5.63196 -3.114799,-4.13724 -3.114798,-4.13723 -2.481645,-3.80425 -2.481645,-3.80425 -1.816556,-3.21637 -1.816562,-3.21638 -2.165787,-4.48057 -2.165787,-4.48056 -1.804587,-4.8347 -1.804593,-4.83471 -0.823846,-2.68535 -0.823846,-2.68536 -1.271128,-5.14692 -1.271134,-5.14693 -0.665195,-4.2518 -0.665202,-4.25181 -0.447034,-4.34606 -0.447035,-4.34605 0.0041,-7.96182 0.0041,-7.9618 0.611291,-5.59449 0.611284,-5.59448 1.147188,-5.81826 1.147183,-5.81827 0.667941,-2.46157 0.66793,-2.46157 1.306958,-4.02803 1.306959,-4.02803 1.970994,-4.92314 1.970993,-4.923152 1.910605,-3.91434 1.910618,-3.914334 -0.0035,-0.225585 -0.0035,-0.225579 0.68179,-0.783229 0.681796,-0.783223 2.268217,-3.804253 2.268223,-3.804247 2.59866,-3.591923 2.598667,-3.591917 2.393547,-3.059268 2.393548,-3.059262 5.004689,-5.153867 5.00469,-5.153866 4.569494,-3.78295 4.5695,-3.782944 6.310258,-4.314411 6.310256,-4.3144 6.00769,-3.044201 6.00768,-3.044194 4.08046,-1.746509 4.08046,-1.746509 4.92592,-1.570422 4.92592,-1.570428 2.6295,-0.690028 2.6295,-0.690034 4.3505,-0.881861 4.35051,-0.881867 5.49392,-0.69644 5.49393,-0.69644 h 10.0301 10.03011 l 4.47776,0.477407 4.47777,0.477412 5.62989,1.104761 5.62988,1.104761 3.07392,0.843515 3.07392,0.843521 3.04634,0.976353 3.04633,0.976353 5.6289,2.229771 5.62891,2.229764 4.22756,2.181789 4.22757,2.181782 3.85202,2.329523 3.85202,2.329518 3.26394,2.231679 3.26392,2.231686 5.22229,4.265114 5.22227,4.265115 5.24026,5.402354 5.24025,5.402361 3.59643,4.602284 3.59644,4.602283 3.60931,5.691571 3.60932,5.691564 2.01158,3.879982 2.01159,3.879981 2.63169,6.327479 2.63171,6.32749 1.74299,5.90465 1.743,5.90465 1.107,5.59448 1.10701,5.59448 0.60988,5.14693 0.60989,5.14692 0.0136,10.08344 0.0136,10.08343 -0.66926,5.58112 -0.66926,5.58112 -1.32949,6.04205 -1.32948,6.04204 -1.95186,5.98416 -1.95185,5.98416 -2.57457,5.78031 -2.57457,5.78032 -1.8239,3.45252 -1.8239,3.45252 -2.81921,4.47559 -2.81921,4.47559 -0.26767,0.22378 -0.26767,0.22378 -2.86492,3.80424 -2.86491,3.80426 -4.66296,5.30928 -4.66296,5.30928 2.02282,1.85166 2.02282,1.85165 3.12371,3.31075 3.12372,3.31077 1.26171,1.16482 1.26172,1.16484 0.47904,0.61019 0.47905,0.61019 9.65544,10.1079 9.65543,10.10792 -0.21573,0.35898 -0.21574,0.35898 -29.24086,-0.008 -29.24087,-0.008 -4.92901,-4.91545 -4.92902,-4.91546 h -0.39697 -0.39697 l -3.59541,1.51817 -3.59542,1.51817 -5.43988,1.8027 -5.43988,1.8027 -2.61114,0.68156 -2.61114,0.68156 -4.5695,0.94024 -4.5695,0.94023 -5.22228,0.64296 -5.22228,0.64296 -11.09736,-0.0489 -11.09735,-0.0489 z"
       id="path304"
       sodipodi:insensitive="true" />
    <path
       style="display:inline;fill:url(#linearGradient11141);fill-opacity:1;stroke-width:0.441331"
       d="m 160.28067,279.24093 -5.43988,-0.38707 -5.43988,-0.91759 -5.43988,-0.9176 -5.73129,-1.54533 -5.73131,-1.54534 -4.96635,-1.76114 -4.96636,-1.76115 -4.09881,-1.84978 -4.09882,-1.8498 -5.00468,-2.73826 -5.00469,-2.73827 -5.82423,-4.00062 -5.824222,-4.00062 -5.055536,-4.33965 -5.05553,-4.33966 -5.127133,-5.48234 -5.127132,-5.48236 -3.102305,-4.10348 -3.102312,-4.10348 -3.80603,-5.9382 -3.806036,-5.9382 -2.841148,-5.92211 -2.841148,-5.92211 -2.225715,-6.17657 -2.225715,-6.17659 -1.286745,-5.01238 -1.286745,-5.01239 -1.173779,-6.71338 -1.173784,-6.71338 -0.02074,-13.20299 -0.02069,-13.20298 1.006865,-6.4896 1.006871,-6.4896 1.092005,-4.46161 1.09201,-4.46161 1.48356,-4.60862 1.483561,-4.60862 1.995226,-5.02787 1.995226,-5.027872 2.208071,-4.251805 2.208076,-4.251812 1.960704,-3.356689 1.96071,-3.356689 1.984907,-2.909132 1.984901,-2.909132 4.441659,-5.6242 4.441653,-5.624202 5.282925,-5.205182 5.282925,-5.205182 5.092405,-3.991474 5.092398,-3.991468 4.567777,-3.009702 4.56778,-3.009691 7.39823,-3.747313 7.39824,-3.747319 3.69912,-1.402929 3.69911,-1.402935 5.6077,-1.742297 5.60769,-1.742285 6.57763,-1.313128 6.57764,-1.313127 5.00469,-0.562087 5.00469,-0.562086 9.35659,0.03624 9.35659,0.03624 5.43988,0.726568 5.43988,0.726562 4.3519,0.872727 4.3519,0.872722 5.50079,1.552052 5.50078,1.552052 4.291,1.646405 4.291,1.646398 4.72257,2.167425 4.72259,2.16743 5.06919,2.966145 5.06921,2.96615 3.69912,2.554382 3.69912,2.554375 4.98852,4.006286 4.98853,4.006287 4.82084,4.923141 4.82084,4.923148 3.10728,3.852201 3.10728,3.852206 2.76682,3.980074 2.76681,3.980074 2.00883,3.356695 2.00884,3.35669 2.16648,4.251805 2.16647,4.251811 1.83753,4.451017 1.83753,4.45102 1.91443,5.89207 1.91444,5.89208 1.28688,6.24345 1.28688,6.24345 0.64309,5.12005 0.6431,5.12005 0.29838,6.26582 0.29838,6.26583 -0.52147,7.16094 -0.52147,7.16094 -1.06679,6.04204 -1.06678,6.04204 -1.49142,5.44523 -1.49141,5.44523 -1.59574,4.40106 -1.59574,4.40106 -2.69782,5.81827 -2.69781,5.81826 -1.16861,1.89576 -1.16859,1.89575 -11.95274,-12.41339 -11.95277,-12.41338 -0.0134,-38.20719 -0.0134,-38.20719 1.30638,-1.53017 1.30638,-1.53017 1.19597,-2.33316 1.19596,-2.33316 v -4.69937 -4.699359 l -1.15334,-2.246656 -1.15334,-2.246661 -2.23328,-2.148346 -2.23329,-2.148345 -2.48844,-1.199477 -2.48845,-1.199484 h -4.13431 -4.13431 l -2.46977,1.19069 -2.46976,1.190683 -1.92981,1.829395 -1.92982,1.829396 -1.40158,2.704371 -1.40157,2.704365 -0.25088,3.411428 -0.25088,3.41142 -6.56848,7.20535 -6.56848,7.20535 -5.22229,5.75642 -5.22228,5.75642 -1.1123,1.35388 -1.1123,1.35388 -13.51864,-14.61938 -13.51865,-14.61938 -0.0586,-2.6666 -0.0586,-2.666606 -0.90739,-2.494132 -0.90738,-2.494138 -2.24586,-2.346645 -2.24586,-2.346645 -2.61114,-1.324764 -2.61114,-1.324758 h -4.36106 -4.36105 l -2.87293,1.454536 -2.87293,1.454535 -1.83521,2.047544 -1.8352,2.04755 -1.10297,2.477671 -1.10298,2.477677 -0.21698,2.779965 -0.21698,2.77995 0.73601,2.60375 0.73602,2.60374 0.70327,1.16818 0.70327,1.16818 0.76886,0.90077 0.76885,0.90077 0.0993,32.33113 0.0994,32.33114 -14.98343,0.0618 -14.98344,0.0618 -6.20146,-0.0625 -6.20146,-0.0624 v -31.99176 -31.99175 l 1.45942,-2.35837 1.45943,-2.35838 0.58343,-1.79023 0.58344,-1.79024 -0.0305,-3.13291 -0.0305,-3.132908 -0.99516,-2.685353 -0.99516,-2.685352 -2.64922,-2.724517 -2.64923,-2.724517 -2.61114,-1.045609 -2.61114,-1.045602 -3.481527,0.01509 -3.481521,0.01509 -2.500892,0.989395 -2.500886,0.989396 -2.37575,2.233007 -2.37575,2.233013 -1.101139,2.322869 -1.101145,2.322869 -0.460335,2.461574 -0.460336,2.461575 0.50315,2.79519 0.503155,2.79521 1.472258,2.5144 1.472251,2.51442 0.11081,46.6072 0.110845,46.6072 29.041682,0.11506 29.04168,0.11506 0.83986,1.69305 0.83986,1.69304 1.81973,1.92841 1.81973,1.92839 2.46117,1.18664 2.46117,1.18665 h 4.13431 4.13431 l 2.48823,-1.25661 2.48823,-1.25661 1.93313,-1.93217 1.93311,-1.93218 0.72272,-1.43728 0.72271,-1.43729 0.61423,-2.98244 0.61423,-2.98243 -0.4618,-2.66101 -0.46181,-2.66102 -0.7978,-1.59079 -0.7978,-1.59079 -1.53985,-1.83578 -1.53986,-1.83579 -2.41382,-1.29713 -2.41381,-1.29712 -5.9e-4,-33.32075 -5.9e-4,-33.32074 0.37433,0.42518 0.37432,0.42518 4.97921,6.93716 4.97919,6.93716 3.9508,5.59448 3.95079,5.59448 6.38253,9.17496 6.38253,9.17496 -0.21736,0.67133 -0.21736,0.67134 -0.93693,2.68535 -0.93693,2.68535 0.1931,3.15739 0.1931,3.15739 1.09104,2.4371 1.09104,2.43709 1.89744,1.94093 1.89745,1.94094 2.19581,1.19197 2.19582,1.19198 4.78709,-0.002 4.78709,-0.002 2.17595,-1.09681 2.17596,-1.0968 2.24585,-2.34882 2.24586,-2.34881 0.94634,-2.59442 0.94634,-2.59441 -0.14586,-3.80425 -0.14587,-3.80425 -1.2383,-2.51321 -1.23829,-2.51322 10.32642,-15.38913 10.32641,-15.38914 3.5324,-5.10162 3.5324,-5.10163 0.11129,37.10208 0.11128,37.10207 14.4269,14.84196 14.42688,14.84197 -3.54993,4.62684 -3.54994,4.62684 -3.8076,4.17061 -3.80793,4.17019 -17.19002,-17.70036 -17.19002,-17.70034 -16.64626,-0.12081 -16.64628,-0.12081 0.10958,0.33732 0.10957,0.33732 5.3712,5.59284 5.37119,5.59283 8.55436,0.008 8.55436,0.008 17.62527,18.09887 37.25783,37.41123 c 3.78453,4.33742 0.39841,3.11151 -40.95907,3.10395 l -3.48076,-3.5085 -3.48075,-3.50849 -1.61331,-1.44417 -1.61331,-1.44418 -6.22012,2.44584 -6.22011,2.44584 -3.69912,1.13755 -3.69911,1.13755 -4.7871,1.11358 -4.78709,1.11358 -4.5695,0.69902 -4.5695,0.69902 -6.09266,0.44998 -6.09266,0.44998 -4.13431,-0.0621 -4.13431,-0.0621 -5.43988,-0.38707 z m -6.31026,-73.51658 -1.30557,-0.59676 -1.01485,-1.13197 -1.01486,-1.13196 -0.22971,-1.76139 -0.22973,-1.7614 0.72171,-1.4353 0.72172,-1.43531 1.39324,-0.87364 1.39324,-0.87366 1.75272,-0.002 1.75274,-0.002 1.076,0.76268 1.07602,0.76269 0.53516,0.69188 0.53516,0.69188 0.43024,1.53393 0.43025,1.53393 -0.83784,1.94789 -0.83782,1.94788 -1.86834,0.87205 -1.86834,0.87206 -0.65278,-0.008 -0.65279,-0.008 -1.30557,-0.59676 z m -42.1071,-10.86907 -17.301262,-0.14594 0.111246,-38.14925 0.111234,-38.14924 1.849564,-0.13763 1.849558,-0.13762 v 33.99167 33.99168 l 7.94222,0.30195 7.94222,0.30194 16.86372,-0.14153 16.86371,-0.14153 -0.0202,0.22378 -0.0202,0.22378 -1.68328,1.34267 -1.68327,1.34268 -1.61285,2.57346 -1.61285,2.57347 -3.97316,0.004 -3.97316,0.004 -2.17595,0.13692 -2.17596,0.13691 -17.30125,-0.14594 z m 90.78,-18.06321 -1.37399,-0.90523 -0.6969,-1.79124 -0.6969,-1.79124 0.29017,-1.21214 0.29018,-1.21212 0.64856,-1.02988 0.64857,-1.02988 1.21934,-0.64846 1.21933,-0.64846 h 1.69802 1.69801 l 1.47872,1.02159 1.47873,1.0216 0.62211,1.83602 0.62211,1.83601 -0.63757,1.72275 -0.63756,1.72275 -1.46327,1.01412 -1.46327,1.01412 -1.7852,-0.008 -1.78521,-0.008 -1.37398,-0.90523 z m -1.30556,-21.12196 -0.87291,-1.007 -3.69199,-4.92315 -3.692,-4.92315 -6.91649,-9.39873 -6.91649,-9.39873 -4.09224,-5.29362 -4.09224,-5.29361 1.0277,-0.74843 1.02769,-0.74842 h 0.23756 0.23756 l 9.11904,10.30419 9.11903,10.3042 6.49665,7.28441 6.49664,7.2844 0.95654,-1.02893 0.95654,-1.02893 12.09651,-13.87432 12.09651,-13.87432 2.57632,-2.85771 2.57632,-2.85771 1.10207,1.13339 1.10207,1.13339 -2.37173,3.06699 -2.37172,3.067 -7.15427,9.84629 -7.15427,9.84629 -5.43347,7.4931 -5.43348,7.4931 -3.07927,0.004 -3.07927,0.004 -0.87291,-1.007 z m -107.907539,-47.97062 -1.354322,-0.60625 -0.937915,-1.03534 -0.937915,-1.03535 -0.418877,-1.59979 -0.418877,-1.5998 0.423615,-1.57779 0.423604,-1.577784 1.336902,-1.317237 1.336902,-1.317236 h 2.833599 2.833599 l 1.463424,1.642253 1.46342,1.642259 0.28397,1.556725 0.28398,1.55672 -0.89168,2.07308 -0.89168,2.07307 -1.868329,0.87205 -1.868339,0.87205 -0.870379,-0.008 -0.870385,-0.008 -1.354317,-0.60625 z m 65.214519,-0.69897 -1.41835,-0.88935 -0.86477,-1.45866 -0.86478,-1.45865 -0.002,-1.4768 -0.002,-1.47679 0.64409,-1.280929 0.64409,-1.280939 1.14083,-0.922867 1.14081,-0.922874 1.49779,-0.288973 1.49779,-0.288974 1.93409,0.759629 1.93408,0.759622 0.82177,1.195932 0.82177,1.195926 0.30157,1.432487 0.30157,1.43248 -0.87064,2.02416 -0.87064,2.02416 -1.44397,0.90538 -1.44397,0.90538 h -1.74077 -1.74076 l -1.41835,-0.88935 z m 85.21931,0.0749 -1.48275,-0.81781 -0.82198,-1.53187 -0.82199,-1.53187 0.18835,-2.21004 0.18835,-2.210033 1.5441,-1.455275 1.5441,-1.455275 1.61158,-0.310931 1.61159,-0.310926 1.99288,0.849406 1.99288,0.8494 0.85073,1.498039 0.85072,1.498039 -0.0291,1.981696 -0.0291,1.98171 -0.7155,1.12302 -0.7155,1.12303 -1.39072,0.87207 -1.39072,0.87208 -1.74756,0.002 -1.74755,0.002 -1.48275,-0.81781 z"
       id="path286"
       sodipodi:nodetypes="ccccccccccccccccccccccccccccccccccccccccccccccccccccccccccccccccccccccccccccccccccccccccccccccccccccccccccccccccccccccccccccccccccccccccccccccccccccccccccccccccccccccccccccccccccccccccccccccccccccccccccccccccccccccccccccccccccccccccccccccccccccccccccccccccccccccccccccccccccccccccccccccccccccccccccccccccccccccccccccccccccccccccccccccccccccccccccccccccccccccccccccccccccccccccccccccccccccccccccccccccccccccccccccccccccccccccccccccccccccccccccccccccccccccccccccccccccccccccccccccccccccccccccccc"
       sodipodi:insensitive="true" />
  </g>
</svg>
