<?xml version="1.0" encoding="utf-8"?>
<!-- Generator: Adobe Illustrator 25.2.1, SVG Export Plug-In . SVG Version: 6.00 Build 0)  -->
<svg version="1.1" id="Layer_1" xmlns="http://www.w3.org/2000/svg" xmlns:xlink="http://www.w3.org/1999/xlink" x="0px" y="0px"
	 viewBox="0 0 128 128" style="enable-background:new 0 0 128 128;" xml:space="preserve">
<style type="text/css">
	.st0{fill:none;}
</style>
<g>
	<g>
		<rect class="st0" width="128" height="128"/>
	</g>
	<path d="M100.65,24.41H48.18c-0.95,0-1.88,0.18-2.75,0.54s-1.67,0.89-2.33,1.56L23.61,46c-0.67,0.67-1.2,1.46-1.56,2.33
		c-0.36,0.87-0.55,1.81-0.54,2.76v52.47c0,1.91,0.76,3.74,2.11,5.09s3.18,2.11,5.09,2.11h71.95c1.91,0,3.74-0.76,5.09-2.11
		c1.35-1.35,2.11-3.18,2.11-5.09V31.61c0-1.91-0.76-3.74-2.11-5.09C104.39,25.17,102.56,24.41,100.65,24.41z M100.65,103.56H28.7
		V51.08L48.18,31.6h27.29v10.8H50.29c-0.95,0-1.87,0.38-2.54,1.05c-0.67,0.67-1.05,1.59-1.05,2.54s0.38,1.87,1.05,2.54
		c0.67,0.67,1.59,1.05,2.54,1.05h28.78c0.95,0,1.87-0.38,2.54-1.05s1.05-1.59,1.05-2.54V31.61h17.99V103.56z M64.68,60.39
		c-3.2,0-6.33,0.95-8.99,2.73c-2.66,1.78-4.74,4.31-5.96,7.27c-1.23,2.96-1.55,6.21-0.92,9.35c0.62,3.14,2.17,6.03,4.43,8.29
		c2.26,2.26,5.15,3.81,8.29,4.43s6.4,0.3,9.35-0.92c2.96-1.23,5.49-3.3,7.27-5.96c1.78-2.66,2.73-5.79,2.73-8.99
		c0-4.29-1.71-8.41-4.75-11.44C73.09,62.1,68.97,60.4,64.68,60.39L64.68,60.39z M64.68,85.57c-1.78,0-3.52-0.53-5-1.52
		s-2.63-2.39-3.31-4.04c-0.68-1.64-0.86-3.45-0.51-5.2c0.35-1.74,1.2-3.35,2.46-4.6c1.26-1.26,2.86-2.11,4.6-2.46
		s3.55-0.17,5.2,0.51c1.64,0.68,3.05,1.83,4.04,3.31c0.99,1.48,1.52,3.22,1.52,5c0,2.38-0.95,4.67-2.64,6.36
		C69.35,84.62,67.06,85.57,64.68,85.57z"/>
</g>
</svg>
