<?xml version="1.0" encoding="utf-8"?>
<!-- Generator: Adobe Illustrator 25.2.1, SVG Export Plug-In . SVG Version: 6.00 Build 0)  -->
<svg version="1.1" id="Layer_1" xmlns="http://www.w3.org/2000/svg" xmlns:xlink="http://www.w3.org/1999/xlink" x="0px" y="0px"
	 viewBox="0 0 128 128" style="enable-background:new 0 0 128 128;" xml:space="preserve">
<style type="text/css">
	.st0{fill:none;}
</style>
<g>
	<g>
		<rect class="st0" width="128" height="128"/>
	</g>
	<g>
		<path d="M20.19,98.99c-2.04,0-3.7-1.66-3.7-3.7c0-2.04,1.66-3.7,3.7-3.7h29.23V70.08c0-2.04,1.66-3.7,3.7-3.7s3.7,1.66,3.7,3.7
			v25.21c0,2.04-1.66,3.7-3.7,3.7H20.19z"/>
		<path d="M103.78,80.04c-0.33,0-0.65-0.04-0.96-0.13l-13.63-3.65c-1.11-0.3-2-1.07-2.45-2.13s-0.39-2.24,0.17-3.24l9.41-16.95
			c0.65-1.17,1.89-1.9,3.23-1.9c0.32,0,0.65,0.04,0.96,0.13l9.08,2.43c1.97,0.53,3.14,2.56,2.62,4.53l-4.87,18.17
			c-0.25,0.96-0.87,1.75-1.72,2.25C105.06,79.87,104.43,80.04,103.78,80.04z M95.68,70.35l5.48,1.47l2.95-11.02l-2.72-0.73
			L95.68,70.35z"/>
		<path d="M86.05,82.6c-0.32,0-0.64-0.04-0.96-0.13L19.24,64.82c-0.96-0.25-1.75-0.87-2.25-1.72c-0.49-0.86-0.63-1.85-0.37-2.81
			l8.52-31.8c0.25-0.95,0.87-1.75,1.72-2.25c0.56-0.32,1.2-0.5,1.85-0.5c0.32,0,0.65,0.04,0.96,0.13l74.95,20.08
			c1.14,0.31,2.08,1.15,2.5,2.26c0.42,1.11,0.28,2.36-0.37,3.35l-4.02,6.1l-9.34,16.82l-4.24,6.44C88.46,81.98,87.3,82.6,86.05,82.6
			z M24.72,58.64l59.71,16l2.54-3.85l9.35-16.84l1.42-2.16l-66.41-17.8L24.72,58.64z M90.15,73.11h0.02v-0.83L90.15,73.11z"/>
	</g>
</g>
</svg>
